<?xml version="1.0" standalone="no"?>
<!DOCTYPE svg PUBLIC "-//W3C//DTD SVG 20010904//EN"
 "http://www.w3.org/TR/2001/REC-SVG-20010904/DTD/svg10.dtd">
<svg version="1.0" xmlns="http://www.w3.org/2000/svg"
 width="512.000000pt" height="512.000000pt" viewBox="0 0 512.000000 512.000000"
 preserveAspectRatio="xMidYMid meet">
<metadata>
Created by potrace 1.11, written by Peter Selinger 2001-2013
</metadata>
<g transform="translate(0.000000,512.000000) scale(0.100000,-0.100000)"
fill="#000000" stroke="none">
<path d="M655 5039 c-11 -6 -29 -22 -39 -36 -17 -23 -19 -48 -20 -309 -1 -241
-3 -286 -17 -301 -8 -10 -60 -58 -114 -108 -54 -49 -128 -117 -164 -150 -256
-233 -305 -315 -296 -494 5 -124 48 -217 138 -305 l61 -59 -1 -296 c0 -308 8
-473 32 -611 3 -14 7 -40 10 -59 3 -19 8 -37 10 -41 2 -4 7 -22 10 -41 15 -87
135 -451 190 -574 271 -608 577 -1066 986 -1475 42 -42 88 -84 102 -93 24 -15
108 -17 1012 -17 834 0 990 2 1013 14 38 20 203 185 323 324 305 353 560 760
750 1197 22 50 44 99 49 110 44 98 151 434 176 550 19 91 29 161 39 280 3 39
8 93 11 122 4 39 6 406 3 595 0 9 27 44 60 77 99 99 140 201 136 339 -4 173
-43 229 -345 502 -52 47 -101 92 -110 100 -9 8 -43 40 -76 70 l-59 55 -1 283
c-1 218 -4 289 -15 308 -30 57 93 54 -1951 53 -1230 0 -1890 -4 -1903 -10z
m3666 -211 c1 -25 1 -309 0 -345 l-1 -22 -1760 1 c-1306 0 -1760 3 -1761 12
-1 13 -1 370 0 374 1 1 793 2 1761 2 l1760 0 1 -22z m105 -605 c131 -122 245
-226 288 -264 99 -88 167 -161 182 -197 42 -101 16 -217 -66 -290 -92 -82
-274 -64 -377 38 -58 57 -85 117 -99 225 -11 78 -57 115 -123 98 -46 -11 -70
-47 -81 -122 -24 -174 -160 -295 -324 -290 -169 5 -292 120 -317 297 -11 76
-36 110 -87 118 -35 6 -86 -17 -101 -44 -5 -10 -12 -38 -15 -62 -23 -197 -159
-319 -342 -308 -157 10 -280 126 -299 283 -9 70 -22 99 -54 118 -34 20 -60 21
-94 6 -33 -15 -46 -40 -62 -123 -17 -91 -43 -145 -96 -196 -145 -140 -386
-111 -494 60 -27 43 -42 90 -51 155 -3 28 -10 58 -15 67 -15 27 -66 50 -101
44 -52 -8 -76 -42 -87 -121 -27 -188 -168 -306 -350 -292 -81 6 -138 34 -202
97 -49 49 -89 135 -89 191 0 37 -21 89 -44 108 -9 8 -34 15 -56 17 -32 2 -45
-3 -70 -26 -16 -15 -31 -36 -31 -47 -11 -155 -63 -244 -181 -308 -67 -37 -168
-45 -233 -21 -118 45 -178 178 -139 304 20 62 56 100 359 376 l160 146 1825 0
1825 0 41 -37z m-3403 -932 c88 -50 168 -72 266 -72 137 -1 273 56 369 153
l60 59 21 -30 c26 -36 132 -117 180 -137 204 -86 421 -48 578 101 l63 60 63
-60 c100 -95 220 -145 352 -146 156 -1 281 52 385 162 l46 47 58 -58 c68 -68
172 -124 261 -141 33 -6 98 -9 145 -6 135 8 240 57 337 157 l47 48 48 -49
c100 -102 225 -158 361 -161 26 0 50 -4 53 -9 3 -5 5 -107 4 -227 -2 -418 -17
-555 -87 -807 -120 -433 -352 -908 -642 -1315 -67 -94 -167 -227 -181 -240 -3
-3 -30 -34 -60 -70 -30 -36 -102 -113 -159 -172 l-105 -108 -926 0 -927 0 -94
98 c-235 241 -437 507 -614 804 -90 150 -192 350 -254 493 -23 55 -49 114 -56
130 -80 183 -175 521 -190 672 -4 32 -8 74 -11 93 -7 48 -13 615 -7 638 4 15
15 19 57 21 126 4 258 62 346 152 l55 57 53 -54 c30 -29 77 -67 105 -83z"/>
<path d="M775 2961 c-11 -5 -29 -19 -40 -31 -18 -20 -20 -36 -19 -174 1 -243
15 -358 70 -552 88 -313 229 -632 411 -929 118 -192 282 -420 386 -536 18 -20
61 -68 96 -107 38 -42 77 -75 95 -81 42 -14 1530 -14 1572 0 37 11 154 137
286 304 34 44 65 82 68 85 15 12 163 237 232 351 239 394 423 871 462 1199 3
25 9 128 12 230 l7 186 -32 32 -32 32 -1777 -1 c-977 0 -1786 -4 -1797 -8z
m3430 -298 c-10 -181 -18 -238 -56 -378 -133 -494 -450 -1070 -802 -1458 l-76
-84 -711 0 -711 0 -67 75 c-37 41 -72 80 -77 86 -32 35 -180 234 -232 311
-238 357 -419 747 -508 1091 -33 131 -38 171 -49 392 l-4 72 1650 0 1649 0 -6
-107z"/>
<path d="M2860 2494 c-53 -23 -74 -82 -49 -137 23 -51 27 -52 417 -53 200 -1
372 0 382 3 40 11 70 53 70 98 0 36 -5 48 -31 69 -17 14 -38 26 -47 27 -9 1
-174 2 -366 2 -243 2 -357 -1 -376 -9z"/>
<path d="M3844 2496 c-65 -29 -67 -139 -4 -171 38 -20 65 -19 101 2 32 19 41
38 41 90 0 67 -73 108 -138 79z"/>
</g>
</svg>
